<svg xmlns="http://www.w3.org/2000/svg" viewBox="0 0 32 32" fill="none">
  <path
    fill="white"
    d="M16 3C8.82 3 3 8.64 3 15.6c0 2.45.74 4.83 2.14 6.88L3.5 29l6.75-1.75A13.2 13.2 0 0 0 16 28.2c7.18 0 13-5.64 13-12.6S23.18 3 16 3Zm0 22.97c-1.82 0-3.59-.47-5.14-1.36l-.37-.21-4 .99.98-3.9-.24-.39a9.98 9.98 0 0 1-1.53-5.3c0-5.5 4.6-9.98 10.3-9.98s10.3 4.48 10.3 9.99c0 5.5-4.6 9.97-10.3 9.97Zm5.65-7.46c-.3-.15-1.77-.86-2.05-.96-.27-.1-.47-.15-.67.15-.2.3-.77.96-.95 1.16-.17.2-.35.22-.65.07-.3-.15-1.26-.45-2.4-1.44-.89-.77-1.49-1.71-1.66-2.01-.17-.3-.02-.46.13-.61.13-.13.3-.35.45-.52.15-.17.2-.3.3-.5.1-.2.05-.37-.02-.52-.08-.15-.67-1.58-.92-2.16-.24-.57-.49-.49-.67-.5h-.57c-.2 0-.52.08-.8.37-.27.3-1.05 1.02-1.05 2.49 0 1.47 1.08 2.89 1.22 3.09.15.2 2.12 3.34 5.23 4.54.74.29 1.32.47 1.77.6.74.24 1.42.2 1.96.12.6-.1 1.77-.72 2.02-1.42.25-.69.25-1.29.17-1.42-.07-.12-.27-.2-.57-.35Z"
  />
</svg>